<svg width="29" height="31" viewBox="0 0 29 31" fill="none" xmlns="http://www.w3.org/2000/svg">
<g clip-path="url(#clip0_3_66)">
<path d="M6.04166 19.375H4.83332C4.19238 19.375 3.57769 19.1028 3.12448 18.6184C2.67127 18.1339 2.41666 17.4768 2.41666 16.7917V5.16666C2.41666 4.48152 2.67127 3.82444 3.12448 3.33997C3.57769 2.8555 4.19238 2.58333 4.83332 2.58333H15.7083C16.3493 2.58333 16.964 2.8555 17.4172 3.33997C17.8704 3.82444 18.125 4.48152 18.125 5.16666V6.45833M13.2917 11.625H24.1667C25.5013 11.625 26.5833 12.7816 26.5833 14.2083V25.8333C26.5833 27.2601 25.5013 28.4167 24.1667 28.4167H13.2917C11.957 28.4167 10.875 27.2601 10.875 25.8333V14.2083C10.875 12.7816 11.957 11.625 13.2917 11.625Z" stroke="white" stroke-width="4" stroke-linecap="round" stroke-linejoin="round"/>
</g>
<defs>
<clipPath id="clip0_3_66">
<rect width="29" height="31" fill="white"/>
</clipPath>
</defs>
</svg>
