<svg width="32" height="32" viewBox="0 0 32 32" fill="none" xmlns="http://www.w3.org/2000/svg">
<path d="M22.6667 29.3333C21.5556 29.3333 20.6111 28.9445 19.8334 28.1667C19.0556 27.3889 18.6667 26.4445 18.6667 25.3333C18.6667 25.2 18.7 24.8889 18.7667 24.4L9.40002 18.9333C9.04447 19.2667 8.63335 19.5278 8.16669 19.7167C7.70002 19.9056 7.20002 20 6.66669 20C5.55558 20 4.61113 19.6111 3.83335 18.8333C3.05558 18.0556 2.66669 17.1111 2.66669 16C2.66669 14.8889 3.05558 13.9445 3.83335 13.1667C4.61113 12.3889 5.55558 12 6.66669 12C7.20002 12 7.70002 12.0944 8.16669 12.2833C8.63335 12.4722 9.04447 12.7333 9.40002 13.0667L18.7667 7.60001C18.7222 7.44445 18.6945 7.29445 18.6834 7.15001C18.6722 7.00556 18.6667 6.84445 18.6667 6.66667C18.6667 5.55556 19.0556 4.61112 19.8334 3.83334C20.6111 3.05556 21.5556 2.66667 22.6667 2.66667C23.7778 2.66667 24.7222 3.05556 25.5 3.83334C26.2778 4.61112 26.6667 5.55556 26.6667 6.66667C26.6667 7.77778 26.2778 8.72223 25.5 9.50001C24.7222 10.2778 23.7778 10.6667 22.6667 10.6667C22.1334 10.6667 21.6334 10.5722 21.1667 10.3833C20.7 10.1944 20.2889 9.93334 19.9334 9.60001L10.5667 15.0667C10.6111 15.2222 10.6389 15.3722 10.65 15.5167C10.6611 15.6611 10.6667 15.8222 10.6667 16C10.6667 16.1778 10.6611 16.3389 10.65 16.4833C10.6389 16.6278 10.6111 16.7778 10.5667 16.9333L19.9334 22.4C20.2889 22.0667 20.7 21.8056 21.1667 21.6167C21.6334 21.4278 22.1334 21.3333 22.6667 21.3333C23.7778 21.3333 24.7222 21.7222 25.5 22.5C26.2778 23.2778 26.6667 24.2222 26.6667 25.3333C26.6667 26.4445 26.2778 27.3889 25.5 28.1667C24.7222 28.9445 23.7778 29.3333 22.6667 29.3333Z" fill="white"/>
</svg>
